<svg xmlns="http://www.w3.org/2000/svg"><symbol id="icon-arrow" viewBox="29 17 43.7 65.4">
<g id="Captions">
</g>
<g xmlns="http://www.w3.org/2000/svg" id="Your_Icon">
	<path d="M72.7,49.8l-5.3-5.3l-0.3-0.4L42.3,19.3c-3-3-8-3-11,0c-3,3-3,8,0,11l19.4,19.4L31.3,69.2c-3,3-3,8,0,11   c1.5,1.5,3.5,2.3,5.5,2.3s4-0.8,5.5-2.3l22.5-22.5l0,0L72.7,49.8z"/>
</g>
</symbol><symbol id="icon-charts" viewBox="2.3 12.9 95 76.1">
<circle fill="none" cx="49.8" cy="73.5" r="1.8"/>
<path d="M94.4,12.9H50.6h-1.5H5.2c-1.6,0-2.9,1.2-2.9,2.8v54.1v0.2v5v0.3c0,1.6,1.3,2.9,2.9,2.9h35.1c0,0.9-0.3,4.8-2.2,6.6  c-1.4,1.5-3.5,2.9-2.7,3.6c0.2,0.4,1.1,0.7,3.1,0.7c4.5,0,9.4,0,11.2,0c0.5,0,0.7,0,0.7,0c1.8,0,6.7,0,11.2,0c2.3,0,3.1-0.4,3.2-1  h-0.1v-0.2h-0.1c-0.1-0.8-1.7-1.9-2.8-3.1c-1.8-1.9-2.1-5.7-2.2-6.6h34.7c1.6,0,2.8-1.3,2.8-2.9v-0.3v-5v-0.2V15.6  C97.3,14.1,96,12.9,94.4,12.9z M49.8,75.4c-1,0-1.8-0.8-1.8-1.8s0.8-1.8,1.8-1.8s1.8,0.8,1.8,1.8S50.8,75.4,49.8,75.4z M93.3,65.7  h-87v-49h87V65.7L93.3,65.7L93.3,65.7z"/>
<rect x="49.8" y="22.5" width="19.6" height="2.4"/>
<rect x="49.8" y="26.8" width="39.2" height="2.4"/>
<rect x="49.8" y="31.2" width="39.2" height="2.4"/>
<rect x="49.8" y="35.6" width="39.2" height="2.4"/>
<rect x="49.8" y="40" width="39.2" height="2.4"/>
<rect x="49.8" y="44.4" width="19.6" height="2.4"/>
<rect x="49.8" y="48.8" width="39.2" height="2.4"/>
<rect x="49.8" y="53.2" width="39.2" height="2.4"/>
<rect x="49.8" y="57.6" width="39.2" height="2.4"/>
<path d="M10.7,34.9h2.4c0.3,0,0.5-0.2,0.5-0.5v-4.7c0-0.3-0.2-0.5-0.5-0.5h-2.4c-0.3,0-0.5,0.2-0.5,0.5v4.7  C10.2,34.7,10.4,34.9,10.7,34.9z"/>
<path d="M16.5,34.9h2.4c0.3,0,0.5-0.2,0.5-0.5v-7.5c0-0.3-0.2-0.5-0.5-0.5h-2.4c-0.3,0-0.5,0.2-0.5,0.5v7.5  C16,34.7,16.2,34.9,16.5,34.9z"/>
<path d="M24.7,23.5h-2.4c-0.3,0-0.5,0.2-0.5,0.5v10.4c0,0.3,0.2,0.5,0.5,0.5h2.4c0.3,0,0.5-0.2,0.5-0.5V24.1  C25.2,23.8,25,23.5,24.7,23.5z"/>
<path d="M17.4,43.9L17.4,43.9L17.4,43.9z"/>
<path d="M16.9,51.1l-0.4-0.2h0.7v-6.7C16,44.1,15,44.4,14,45c-1.6,0.9-2.8,2.4-3.2,4.2c-0.5,1.7-0.3,3.5,0.6,5.1L16.9,51.1z"/>
<path d="M20.1,52.9l-2.7-1.6l-5.9,3.4c0.6,1,1.4,1.7,2.4,2.3c1.1,0.6,2.3,0.9,3.5,0.9c2.4,0,4.6-1.2,5.9-3.3L20.1,52.9z"/>
<path d="M17.7,50.9l5.9,3.4c0.6-1,0.8-2.1,0.8-3.3c0-3.7-3-6.8-6.7-6.9C17.7,44.1,17.7,50.9,17.7,50.9z"/>
<polygon points="17.4,43.9 17.4,43.9 17.4,43.9 "/>
<polygon points="17.4,51.1 17.4,43.9 17.4,43.9 17.4,43.9 17.4,51.1 "/>
<path d="M46.2,25.7c-0.5,0-0.8,0.4-0.8,0.8c0,0.1,0,0.2,0.1,0.3l-4.1,3c-0.1-0.1-0.3-0.2-0.5-0.2c-0.2,0-0.4,0.1-0.6,0.2l-3.8-2.4  c0-0.1,0-0.2,0-0.3c0-0.5-0.4-0.8-0.8-0.8c-0.5,0-0.8,0.4-0.8,0.8c0,0.2,0,0.3,0.1,0.4l-3.5,3.5c-0.1-0.1-0.3-0.1-0.4-0.1  c-0.5,0-0.8,0.4-0.8,0.8c0,0.5,0.4,0.8,0.8,0.8c0.5,0,0.8-0.4,0.8-0.8c0-0.2,0-0.3-0.1-0.4l3.5-3.5c0.1,0.1,0.3,0.1,0.4,0.1  c0.2,0,0.4-0.1,0.6-0.2l3.8,2.3c0,0.1,0,0.2,0,0.3c0,0.5,0.4,0.8,0.8,0.8c0.5,0,0.8-0.4,0.8-0.8c0-0.1,0-0.2-0.1-0.3l4.1-3  c0.1,0.1,0.3,0.2,0.5,0.2c0.5,0,0.8-0.4,0.8-0.8C47.1,26.1,46.7,25.7,46.2,25.7z"/>
<path d="M39.6,50c-1.5-0.5-2.1-0.9-2.1-1.5c0-0.5,0.4-1,1.5-1c1.2,0,2,0.4,2.5,0.6l0.5-1.9c-0.6-0.3-1.3-0.5-2.5-0.6v-1.5h-1.7v1.6  c-1.8,0.4-2.9,1.5-2.9,3c0,1.7,1.2,2.5,3.1,3.1c1.3,0.4,1.8,0.8,1.8,1.5c0,0.7-0.7,1.1-1.6,1.1c-1.1,0-2.1-0.4-2.8-0.8l-0.5,2  c0.7,0.4,1.8,0.7,2.9,0.7v1.6h1.7v-1.7c2-0.3,3-1.6,3-3.2C42.5,51.7,41.6,50.7,39.6,50z"/>
</symbol><symbol id="icon-logo" viewBox="7.3 335.5 597.5 114.5">
<g xmlns="http://www.w3.org/2000/svg">
	<path fill="#F1F0F0" d="M51.7,408.2H27.2v37.4H7.3V341h44c21.9,0,34.5,13.3,34.5,33.8C85.8,394.3,72.4,408.2,51.7,408.2    M27.2,359.6V390h24c9.2,0,14.7-4.7,14.7-15.2c0-10.6-5.6-15.2-14.7-15.2C51.2,359.6,27.2,359.6,27.2,359.6z"/>
	<path fill="#F1F0F0" d="M163.1,421c-4.5,15.9-18.2,26.6-37.6,26.6c-22,0-39.8-18.1-39.8-40.6c0-22.5,17.8-40.8,39.8-40.8   c18.7,0,34.4,11.8,38.1,32.5l-54.8,23c3.9,5.4,9.8,8.3,16.6,8.3c6.5,0,13.1-2.8,16.4-8.9L163.1,421 M140.8,390.5   c-3.6-4.4-9.1-7-15.4-7c-11.5,0-20.7,9.1-21.1,22.3L140.8,390.5z"/>
	<path fill="#F1F0F0" d="M248.7,421c-4.5,15.9-18.2,26.6-37.5,26.6c-22,0-39.8-18.1-39.8-40.6c0-22.5,17.7-40.8,39.8-40.8   c18.7,0,34.4,11.8,38.1,32.5l-54.9,23c3.9,5.4,9.8,8.3,16.6,8.3c6.5,0,13.2-2.8,16.5-8.9L248.7,421 M226.4,390.5   c-3.6-4.4-9.1-7-15.4-7c-11.4,0-20.6,9.1-21.1,22.3L226.4,390.5z"/>
	<path fill="#F1F0F0" d="M300.6,385.8c-8-0.9-14.6,0-19.2,4.8c-4.2,4.3-5,10.7-5,16.9v38.1h-19.9V368h19v7.7   c6.3-7.8,15.7-10.7,25-9.2V385.8"/>
	<path fill="#F1F0F0" d="M358,445.6h-51V341h48.2c21,0,31.5,10.8,31.5,28.4c0,8.8-3.7,15.8-10.3,20.4c8.9,4.7,14.4,13.2,14.4,25   C390.8,433.6,378.2,445.6,358,445.6 M326.9,359.1v23.1h28.3c6.8,0,12.2-4.7,12.2-11.6c0-7-4.7-11.5-12.2-11.5L326.9,359.1   L326.9,359.1z M354.8,400.5h-27.8v26.9h28.3c7.7,0,15.2-2.9,15.2-13.2C370.5,405.4,364.9,400.5,354.8,400.5z"/>
	<path fill="#F1F0F0" d="M441.9,385.8c-8-0.9-14.6,0-19.2,4.8c-4.2,4.3-5,10.7-5,16.9v38.1h-19.9V368h19v7.7   c6.3-7.8,15.7-10.7,25-9.2L441.9,385.8"/>
	<path fill="#F1F0F0" d="M469.8,359.6h-19.9V341h19.9V359.6z M469.8,445.6h-19.9V368h19.9V445.6z"/>
	<path fill="#F1F0F0" d="M554.5,421c-4.6,15.9-18.2,26.6-37.5,26.6c-22.1,0-39.8-18.1-39.8-40.6c0-22.5,17.7-40.8,39.8-40.8   c18.6,0,34.3,11.8,38.1,32.5l-55,23c4,5.4,9.9,8.3,16.6,8.3c6.5,0,13.2-2.8,16.5-8.9L554.5,421 M532.2,390.5c-3.5-4.4-9.1-7-15.4-7   c-11.3,0-20.6,9.1-21.1,22.3L532.2,390.5z"/>
	<path fill="#F1F0F0" d="M604.1,368.3V386h-14v59.6h-19.9V386h-9.4v-17.7h9.4c0.2-20.2,12.5-35.1,34.6-32.5v18.7   c-9.4-0.8-14.7,3.1-14.7,13.8L604.1,368.3"/>
</g>
</symbol><symbol id="icon-piggy-bank" viewBox="0 0 95.209 100">
<title id="title4217">Pig by Jezmael</title>
<namedview xmlns:inkscape="http://www.inkscape.org/namespaces/inkscape" inkscape:window-y="-8" inkscape:cy="10.665172" bordercolor="#666666" borderopacity="1.0" inkscape:cx="-1.9826246" fit-margin-bottom="0" inkscape:window-maximized="1" inkscape:current-layer="layer1" pagecolor="#ffffff" fit-margin-right="0" inkscape:window-width="1280" inkscape:zoom="1.4" inkscape:pageshadow="2" inkscape:pageopacity="0.0" id="base" fit-margin-left="0" inkscape:window-height="738" inkscape:window-x="-8" fit-margin-top="0" showgrid="false" inkscape:document-units="px">
	</namedview>
<path d="M42.631,27.23c-1.438,0-2.578,1.173-2.578,2.611s1.14,2.611,2.578,2.611c1.438,0,2.61-1.173,2.61-2.611  S44.068,27.23,42.631,27.23z"/>
<path d="M53.206,27.23c-1.438,0-2.578,1.173-2.578,2.611s1.14,2.611,2.578,2.611c1.438,0,2.61-1.173,2.61-2.611  S54.643,27.23,53.206,27.23z"/>
<path d="M48.017,36.847c-10.276,0-18.605,7.594-18.605,16.92c0,9.326,8.329,16.92,18.605,16.92s18.671-7.594,18.671-16.92  C66.688,44.441,58.294,36.847,48.017,36.847z M48.017,67.646c-8.478,0-15.301-6.186-15.301-13.879s6.823-13.913,15.301-13.913  c8.477,0,15.334,6.22,15.334,13.913S56.494,67.646,48.017,67.646z"/>
<path d="M41.507,49.009c-1.035,0-1.884,0.815-1.884,1.851v4.131c0,1.035,0.849,1.884,1.884,1.884c1.036,0,1.884-0.849,1.884-1.884  v-4.131C43.39,49.824,42.543,49.009,41.507,49.009z"/>
<path d="M54.197,49.009c-1.036,0-1.884,0.815-1.884,1.851v4.131c0,1.035,0.848,1.884,1.884,1.884c1.035,0,1.884-0.849,1.884-1.884  v-4.131C56.081,49.824,55.232,49.009,54.197,49.009z"/>
<path d="M91.078,29.478c2.461-2.603,4.131-5.968,4.131-9.683c0-4.049-1.509-7.437-4.032-9.716c-2.522-2.278-5.977-3.437-9.781-3.437  c-2.643,0-5.56,0.207-8.295,0.859C65.863,2.777,57.248,0,48.017,0c-9.335,0-18.032,2.811-25.314,7.634  c-2.901-0.771-6.056-0.991-8.89-0.991c-3.805,0-7.259,1.158-9.781,3.437C1.509,12.358,0,15.747,0,19.795  c0,4.008,1.97,7.603,4.759,10.278c-2.026,5.291-3.14,11.038-3.14,17.052c0,12.354,4.688,23.615,12.36,32.022  c-0.455,1.339-1.063,3.11-1.851,5.519c-0.5,1.529-0.983,3.052-1.355,4.264c-0.187,0.605-0.344,1.124-0.463,1.553  c-0.119,0.43-0.217,0.668-0.264,1.091c-0.076,0.683-0.155,1.628,0.264,2.677c0.386,0.963,1.34,1.832,2.578,2.313l-0.033,0.032  c0.044,0.025,0.277,0.104,0.331,0.133C14.739,97.576,20.092,100,28.057,100c2.706,0,5.589-0.559,7.897-1.289  c1.154-0.365,2.163-0.774,2.975-1.223c0.406-0.224,0.757-0.455,1.091-0.76c0.333-0.305,0.738-0.703,0.826-1.487  c0.049-0.442,0.07-0.988,0.065-1.554c2.314,0.361,4.692,0.562,7.105,0.562c2.448,0,4.857-0.223,7.204-0.595  c-0.006,0.583,0.017,1.131,0.066,1.586c0.087,0.784,0.493,1.183,0.826,1.487s0.685,0.536,1.091,0.76  c0.812,0.448,1.819,0.857,2.974,1.223c2.309,0.73,5.192,1.289,7.898,1.289c7.966,0,13.317-2.424,14.871-3.271  c0.053-0.029,0.287-0.107,0.331-0.133l-0.033-0.033c1.237-0.48,2.192-1.35,2.577-2.312c0.42-1.049,0.341-1.994,0.265-2.677  c-0.047-0.424-0.145-0.659-0.265-1.091c-0.119-0.432-0.275-0.977-0.462-1.586c-0.374-1.218-0.854-2.729-1.355-4.264  c-0.793-2.432-1.399-4.225-1.851-5.551c7.643-8.4,12.326-19.639,12.326-31.957C94.481,40.886,93.255,34.93,91.078,29.478z   M81.394,9.815c3.164,0,5.818,0.941,7.667,2.611c1.849,1.669,2.975,4.078,2.975,7.369c0,2.271-1.027,4.378-2.479,6.246  c-2.284-4.614-5.308-8.799-8.89-12.393c2.728-0.016,5.195,1.454,7.436,4.362c-0.229-4.543-4.237-5.873-9.419-6.246  c-0.624-0.558-1.263-1.095-1.916-1.619C78.317,9.948,79.887,9.815,81.394,9.815z M3.173,19.795c0-3.292,1.125-5.7,2.974-7.37  s4.503-2.611,7.667-2.611c1.742,0,3.576,0.138,5.354,0.396c-0.582,0.47-1.128,0.957-1.685,1.454  c-5.911,0.219-10.721,1.36-10.972,6.345c2.591-3.363,5.513-4.792,8.757-4.23c-0.514,0.522-1.028,1.039-1.52,1.586  c-0.021,0.024-0.046,0.043-0.066,0.066c-0.053,0.057-0.113,0.108-0.165,0.165c-2.968,3.243-5.475,6.92-7.436,10.938  C4.419,24.544,3.173,22.275,3.173,19.795z M37.674,94.515c-0.087,0.062-0.14,0.11-0.298,0.198c-0.526,0.291-1.369,0.639-2.379,0.958  c-2.021,0.639-4.689,1.157-6.94,1.157c-7.52,0-13.07-2.696-13.615-3.008c-0.104-0.057-0.216-0.101-0.33-0.133  c-0.725-0.226-0.771-0.375-0.859-0.594c-0.088-0.22-0.091-0.672-0.033-1.19c-0.016,0.146,0.026-0.181,0.133-0.562  c0.105-0.381,0.281-0.898,0.462-1.487c0.362-1.179,0.826-2.678,1.322-4.196c0.566-1.734,0.93-2.828,1.322-3.999  c5.859,5.522,13.122,9.529,21.183,11.401C37.654,93.619,37.686,94.233,37.674,94.515z M82.32,89.822  c0.182,0.592,0.356,1.104,0.463,1.486c0.105,0.384,0.147,0.739,0.132,0.596c0.058,0.518,0.055,0.97-0.033,1.189  c-0.088,0.219-0.135,0.368-0.859,0.594c-0.114,0.032-0.226,0.076-0.33,0.133c-0.545,0.312-6.096,3.008-13.615,3.008  c-2.251,0-4.92-0.519-6.94-1.157c-1.01-0.319-1.853-0.667-2.379-0.958c-0.158-0.088-0.211-0.137-0.298-0.198  c-0.012-0.288,0.019-0.915,0.033-1.487c8.055-1.889,15.331-5.902,21.184-11.434v-0.001c0.394,1.177,0.75,2.277,1.321,4.032  C81.495,87.15,81.957,88.637,82.32,89.822z M48.017,90.02c-23.346,0-42.201-19.191-42.201-42.895S24.672,4.263,48.017,4.263  s42.267,19.159,42.267,42.862S71.363,90.02,48.017,90.02z"/>
</symbol><symbol id="icon-trophy" viewBox="30.2 30.9 43.5 53.7">
<g xmlns="http://www.w3.org/2000/svg">
	<path d="M66,52.5c4.3,0,7.7-3.5,7.7-7.8c0-3.8-2.7-6.9-6.2-7.6h0c0-3.3,0-6.1,0-6.1h-31c0,0,0,2.8,0,6.1c-3.6,0.7-6.2,3.9-6.2,7.6   c0,4.3,3.4,7.7,7.7,7.8c1.4,3.8,4.1,7.6,9.3,9l-4.4,12.3h0l-6.7,4.4v6.4h31.5v-6.3l-6.6-4.6l-4.4-12.3C61.9,60,64.6,56.3,66,52.5z    M67.5,39.6c2.2,0.7,3.8,2.7,3.8,5.1c0,2.6-1.9,4.8-4.5,5.2c0,0,0,0,0,0c0.6-2.6,0.7-5,0.7-6.5C67.5,42.2,67.5,40.9,67.5,39.6   C67.5,39.6,67.5,39.6,67.5,39.6z M32.7,44.7c0-2.4,1.6-4.4,3.8-5.1v3.7c0,1.6,0.1,4,0.7,6.5C34.6,49.5,32.7,47.3,32.7,44.7z    M58,73.7H45.9l4.2-11.8C50.7,62,51.3,62,52,62s1.3,0,1.9-0.1L58,73.7z M52,59.5c-4.3,0-9.2-1.5-11.6-7.4c-0.3-0.7-0.5-1.5-0.7-2.4   c-0.4-1.8-0.7-3.9-0.7-6.4v-3.8V37v-3.6h26v9.9c0,2.5-0.2,4.6-0.7,6.4c0,0.1-0.1,0.2-0.1,0.3c-0.1,0.4-0.2,0.9-0.4,1.3   c-0.1,0.2-0.1,0.3-0.2,0.5C61.4,58,56.4,59.5,52,59.5z"/>
	<polygon points="54.4,42.6 52.3,38.5 50.3,42.6 45.8,43.2 49.1,46.4 48.3,50.9 52.3,48.8 56.4,50.9 55.6,46.4 58.9,43.2  "/>
</g>
</symbol></svg>