<svg xmlns="http://www.w3.org/2000/svg"><symbol id="icon-charts" viewBox="0 0 100 100"><circle cx="49.767" cy="73.536" r="1.846" fill="none"/><path d="M94.436 12.885H5.176c-1.563 0-2.91 1.19-2.91 2.752v59.608c0 1.563 1.347 2.877 2.91 2.877h35.146c-.04.896-.32 4.753-2.155 6.623-1.445 1.473-3.454 2.854-2.67 3.563.19.436 1.092.688 3.14.688H61.763c2.334 0 3.15-.382 3.157-.953h-.08v-.188h-.083c-.104-.77-1.66-1.908-2.84-3.106-1.834-1.87-2.112-5.727-2.153-6.624h34.674c1.563 0 2.83-1.313 2.83-2.877V15.638c0-1.566-1.27-2.755-2.832-2.755zm-44.67 62.497c-1.02 0-1.845-.825-1.845-1.846s.827-1.847 1.847-1.847 1.846.825 1.846 1.846-.827 1.846-1.846 1.846zm43.494-9.655H6.274V16.702H93.26v49.025h.002-.002zM49.767 22.452H69.35v2.392H49.767zM49.767 26.844h39.167v2.392H49.767zM49.767 31.235h39.167v2.392H49.767zM49.767 35.627h39.167v2.392H49.767zM49.767 40.02h39.167v2.39H49.767zM49.767 44.41H69.35v2.392H49.767zM49.767 48.802h39.167v2.39H49.767zM49.767 53.193h39.167v2.39H49.767zM49.767 57.584h39.167v2.393H49.767zM10.735 34.934h2.437c.288 0 .522-.233.522-.522v-4.655c0-.288-.234-.522-.522-.522h-2.437c-.288 0-.522.234-.522.522v4.655c0 .29.234.522.522.522zM16.495 34.934h2.437c.288 0 .522-.233.522-.522v-7.504c0-.29-.234-.522-.522-.522h-2.437c-.288 0-.522.233-.522.522v7.504c0 .29.234.522.522.522zM24.69 23.537h-2.436c-.288 0-.522.234-.522.522V34.41c0 .29.234.522.522.522h2.437c.29 0 .523-.233.523-.522V24.06c0-.29-.234-.523-.522-.523zM17.427 43.856zM16.926 51.05l-.433-.25h.683v-6.69c-1.178.036-2.18.326-3.22.926-1.607.928-2.757 2.426-3.238 4.218-.458 1.71-.255 3.496.573 5.052l5.636-3.255zM20.14 52.906l-2.714-1.566-5.885 3.4c.62 1.003 1.374 1.727 2.415 2.327 1.056.61 2.254.932 3.466.932 2.395 0 4.63-1.244 5.895-3.26l-3.176-1.834zM17.677 50.907l5.887 3.4c.558-1.04.81-2.054.81-3.257 0-3.745-2.982-6.808-6.697-6.94v6.797zM17.426 43.856zM17.427 51.05v-7.194 7.195zM46.245 25.706c-.466 0-.84.376-.84.84 0 .117.022.23.064.33l-4.083 2.995c-.147-.126-.337-.2-.546-.2-.228 0-.44.092-.59.243l-3.752-2.35c.028-.085.045-.177.045-.272 0-.462-.377-.838-.84-.838-.466 0-.842.376-.842.84 0 .162.048.313.128.44l-3.48 3.48c-.127-.08-.278-.126-.44-.126-.465 0-.84.378-.84.84 0 .464.377.84.84.84.466 0 .843-.376.843-.84 0-.162-.047-.314-.126-.44l3.478-3.48c.13.08.28.127.442.127.23 0 .44-.094.59-.244l3.754 2.347c-.03.085-.045.177-.045.27 0 .467.374.842.84.842.463 0 .838-.376.838-.842 0-.117-.022-.227-.065-.328l4.083-2.996c.147.126.338.202.547.202.464 0 .838-.375.838-.84 0-.465-.375-.84-.838-.84zM39.612 50c-1.453-.547-2.052-.906-2.052-1.47 0-.48.36-.958 1.47-.958 1.232 0 2.02.394 2.463.583l.496-1.933c-.565-.274-1.335-.513-2.48-.564v-1.504h-1.676v1.624c-1.83.358-2.89 1.538-2.89 3.042 0 1.66 1.25 2.514 3.08 3.13 1.264.425 1.81.836 1.81 1.485 0 .685-.665 1.06-1.64 1.06-1.11 0-2.12-.356-2.838-.75l-.513 2c.65.375 1.76.683 2.907.735v1.623h1.674V56.36c1.966-.343 3.043-1.643 3.043-3.165 0-1.536-.82-2.476-2.855-3.195z"/></symbol><symbol id="icon-piggy-bank" viewBox="0 0 95.209 100"><title>Pig by Jezmael</title><path d="M42.63 27.23c-1.437 0-2.577 1.173-2.577 2.61s1.14 2.612 2.578 2.612c1.44 0 2.61-1.173 2.61-2.61s-1.172-2.612-2.61-2.612zM53.206 27.23c-1.438 0-2.578 1.173-2.578 2.61s1.14 2.612 2.578 2.612 2.61-1.173 2.61-2.61-1.173-2.612-2.61-2.612zM48.017 36.847c-10.276 0-18.605 7.594-18.605 16.92s8.33 16.92 18.605 16.92 18.67-7.594 18.67-16.92-8.393-16.92-18.67-16.92zm0 30.8c-8.478 0-15.3-6.187-15.3-13.88s6.822-13.913 15.3-13.913c8.477 0 15.334 6.22 15.334 13.913s-6.856 13.88-15.333 13.88zM41.507 49.01c-1.035 0-1.884.814-1.884 1.85v4.13c0 1.036.85 1.885 1.884 1.885 1.036 0 1.884-.85 1.884-1.884v-4.13c0-1.036-.847-1.85-1.883-1.85zM54.197 49.01c-1.036 0-1.884.814-1.884 1.85v4.13c0 1.036.848 1.885 1.884 1.885 1.035 0 1.884-.85 1.884-1.884v-4.13c0-1.036-.848-1.85-1.883-1.85zM91.078 29.478c2.46-2.603 4.13-5.968 4.13-9.683 0-4.05-1.508-7.437-4.03-9.716C88.654 7.8 85.2 6.64 81.395 6.64c-2.643 0-5.56.207-8.295.86C65.864 2.776 57.25 0 48.018 0c-9.335 0-18.032 2.81-25.314 7.634-2.9-.77-6.056-.99-8.89-.99-3.805 0-7.26 1.157-9.78 3.436C1.508 12.358 0 15.747 0 19.795c0 4.008 1.97 7.603 4.76 10.278-2.027 5.29-3.14 11.038-3.14 17.052 0 12.354 4.687 23.615 12.36 32.022-.456 1.34-1.064 3.11-1.852 5.52-.5 1.528-.983 3.05-1.355 4.263-.187.605-.344 1.124-.463 1.553-.12.43-.217.668-.264 1.09-.076.684-.155 1.63.264 2.678.386.964 1.34 1.833 2.578 2.314l-.033.032c.044.025.277.104.33.133 1.554.846 6.907 3.27 14.872 3.27 2.706 0 5.59-.56 7.897-1.29 1.154-.364 2.163-.773 2.975-1.222.405-.224.756-.455 1.09-.76.333-.305.738-.703.826-1.487.05-.44.07-.987.065-1.553 2.315.36 4.693.562 7.106.562 2.448 0 4.857-.224 7.204-.596-.006.583.017 1.13.066 1.586.087.784.493 1.183.826 1.487s.685.536 1.09.76c.813.448 1.82.857 2.975 1.223 2.31.73 5.192 1.29 7.898 1.29 7.966 0 13.317-2.425 14.87-3.272.054-.03.288-.107.332-.133l-.033-.033c1.237-.48 2.192-1.35 2.577-2.312.42-1.05.342-1.994.266-2.677-.047-.424-.145-.66-.265-1.09-.118-.433-.274-.978-.46-1.587-.375-1.218-.855-2.73-1.356-4.264-.793-2.432-1.4-4.225-1.85-5.55 7.642-8.4 12.325-19.64 12.325-31.958 0-6.238-1.225-12.194-3.402-17.646zM81.394 9.815c3.164 0 5.818.94 7.667 2.61 1.85 1.67 2.976 4.08 2.976 7.37 0 2.27-1.027 4.378-2.48 6.246-2.283-4.613-5.307-8.798-8.89-12.392 2.73-.016 5.196 1.454 7.437 4.362-.23-4.543-4.237-5.873-9.42-6.246-.623-.558-1.262-1.095-1.915-1.62 1.55-.196 3.12-.33 4.626-.33zm-78.22 9.98c0-3.292 1.124-5.7 2.973-7.37s4.503-2.61 7.667-2.61c1.742 0 3.576.137 5.354.395-.582.47-1.128.957-1.685 1.454-5.91.22-10.72 1.36-10.972 6.345 2.592-3.364 5.514-4.793 8.758-4.23-.514.52-1.028 1.038-1.52 1.585-.02.024-.046.043-.066.066-.053.058-.113.11-.165.166-2.968 3.243-5.475 6.92-7.436 10.938-1.66-1.99-2.907-4.26-2.907-6.74zm34.5 74.72c-.087.062-.14.11-.298.198-.526.29-1.37.64-2.38.958-2.02.64-4.688 1.158-6.94 1.158-7.52 0-13.07-2.696-13.614-3.008-.104-.057-.216-.1-.33-.133-.725-.226-.77-.375-.86-.594-.087-.22-.09-.672-.032-1.19-.016.146.026-.18.133-.562.105-.38.28-.897.462-1.486.362-1.18.826-2.678 1.322-4.196.566-1.734.93-2.828 1.322-4 5.858 5.523 13.12 9.53 21.182 11.402.012.56.044 1.173.032 1.455zm44.646-4.693c.182.592.356 1.104.463 1.486.105.384.147.74.132.596.058.518.055.97-.033 1.19-.088.218-.135.367-.86.593-.113.032-.225.076-.33.133-.544.312-6.095 3.008-13.614 3.008-2.25 0-4.92-.52-6.94-1.157-1.01-.318-1.853-.666-2.38-.957-.157-.088-.21-.137-.297-.198-.01-.288.02-.915.034-1.487 8.055-1.89 15.33-5.902 21.184-11.434.394 1.176.75 2.276 1.32 4.03.497 1.526.96 3.013 1.322 4.198zm-34.303.198c-23.346 0-42.2-19.19-42.2-42.895S24.67 4.263 48.016 4.263s42.267 19.16 42.267 42.862S71.364 90.02 48.017 90.02z"/></symbol><symbol id="icon-trophy" viewBox="30.2 30.9 43.5 53.7"><path d="M66 52.5c4.3 0 7.7-3.5 7.7-7.8 0-3.8-2.7-6.9-6.2-7.6V31h-31v6.1c-3.6.7-6.2 3.9-6.2 7.6 0 4.3 3.4 7.7 7.7 7.8 1.4 3.8 4.1 7.6 9.3 9l-4.4 12.3-6.7 4.4v6.4h31.5v-6.3l-6.6-4.6-4.4-12.3c5.2-1.4 7.9-5.1 9.3-8.9zm1.5-12.9c2.2.7 3.8 2.7 3.8 5.1 0 2.6-1.9 4.8-4.5 5.2.6-2.6.7-5 .7-6.5v-3.8zm-34.8 5.1c0-2.4 1.6-4.4 3.8-5.1v3.7c0 1.6.1 4 .7 6.5-2.6-.3-4.5-2.5-4.5-5.1zm25.3 29H45.9l4.2-11.8c.6.1 1.2.1 1.9.1s1.3 0 1.9-.1L58 73.7zm-6-14.2c-4.3 0-9.2-1.5-11.6-7.4-.3-.7-.5-1.5-.7-2.4-.4-1.8-.7-3.9-.7-6.4v-9.9h26v9.9c0 2.5-.2 4.6-.7 6.4 0 .1-.1.2-.1.3-.1.4-.2.9-.4 1.3-.1.2-.1.3-.2.5-2.2 6.2-7.2 7.7-11.6 7.7zM54.4 42.6l-2.1-4.1-2 4.1-4.5.6 3.3 3.2-.8 4.5 4-2.1 4.1 2.1-.8-4.5 3.3-3.2z"/></symbol></svg>