<svg style="display:none" xmlns="http://www.w3.org/2000/svg"><symbol id="icon-arrow" viewBox="29 17 43.7 65.4"><path d="M72.7 49.8l-5.3-5.3-.3-.4-24.8-24.8c-3-3-8-3-11 0s-3 8 0 11l19.4 19.4-19.4 19.5c-3 3-3 8 0 11 1.5 1.5 3.5 2.3 5.5 2.3s4-.8 5.5-2.3l22.5-22.5 7.9-7.9z"/></symbol><symbol id="icon-charts" viewBox="2.3 12.9 95 76.1"><circle cx="49.8" cy="73.5" r="1.8" fill="none"/><path d="M94.4 12.9H5.2c-1.6 0-2.9 1.2-2.9 2.8v59.6c0 1.6 1.3 2.9 2.9 2.9h35.1c0 .9-.3 4.8-2.2 6.6-1.4 1.5-3.5 2.9-2.7 3.6.2.4 1.1.7 3.1.7H61.6c2.3 0 3.1-.4 3.2-1h-.1v-.2h-.1c-.1-.8-1.7-1.9-2.8-3.1-1.8-1.9-2.1-5.7-2.2-6.6h34.7c1.6 0 2.8-1.3 2.8-2.9V15.6c.2-1.5-1.1-2.7-2.7-2.7zM49.8 75.4c-1 0-1.8-.8-1.8-1.8s.8-1.8 1.8-1.8 1.8.8 1.8 1.8-.8 1.8-1.8 1.8zm43.5-9.7h-87v-49h87v49zM49.8 22.5h19.6v2.4H49.8zM49.8 26.8H89v2.4H49.8zM49.8 31.2H89v2.4H49.8zM49.8 35.6H89V38H49.8zM49.8 40H89v2.4H49.8zM49.8 44.4h19.6v2.4H49.8zM49.8 48.8H89v2.4H49.8zM49.8 53.2H89v2.4H49.8zM49.8 57.6H89V60H49.8zM10.7 34.9h2.4c.3 0 .5-.2.5-.5v-4.7c0-.3-.2-.5-.5-.5h-2.4c-.3 0-.5.2-.5.5v4.7c0 .3.2.5.5.5zM16.5 34.9h2.4c.3 0 .5-.2.5-.5v-7.5c0-.3-.2-.5-.5-.5h-2.4c-.3 0-.5.2-.5.5v7.5c0 .3.2.5.5.5zM24.7 23.5h-2.4c-.3 0-.5.2-.5.5v10.4c0 .3.2.5.5.5h2.4c.3 0 .5-.2.5-.5V24.1c0-.3-.2-.6-.5-.6zM17.4 43.9zM16.9 51.1l-.4-.2h.7v-6.7c-1.2-.1-2.2.2-3.2.8-1.6.9-2.8 2.4-3.2 4.2-.5 1.7-.3 3.5.6 5.1l5.5-3.2zM20.1 52.9l-2.7-1.6-5.9 3.4c.6 1 1.4 1.7 2.4 2.3 1.1.6 2.3.9 3.5.9 2.4 0 4.6-1.2 5.9-3.3l-3.2-1.7zM17.7 50.9l5.9 3.4c.6-1 .8-2.1.8-3.3 0-3.7-3-6.8-6.7-6.9v6.8zM17.4 43.9zM17.4 51.1v-7.2 7.2zM46.2 25.7c-.5 0-.8.4-.8.8 0 .1 0 .2.1.3l-4.1 3c-.1-.1-.3-.2-.5-.2s-.4.1-.6.2l-3.8-2.4v-.3c0-.5-.4-.8-.8-.8-.5 0-.8.4-.8.8 0 .2 0 .3.1.4L31.5 31c-.1-.1-.3-.1-.4-.1-.5 0-.8.4-.8.8 0 .5.4.8.8.8.5 0 .8-.4.8-.8 0-.2 0-.3-.1-.4l3.5-3.5c.1.1.3.1.4.1.2 0 .4-.1.6-.2l3.8 2.3v.3c0 .5.4.8.8.8.5 0 .8-.4.8-.8 0-.1 0-.2-.1-.3l4.1-3c.1.1.3.2.5.2.5 0 .8-.4.8-.8.1-.3-.3-.7-.8-.7zM39.6 50c-1.5-.5-2.1-.9-2.1-1.5 0-.5.4-1 1.5-1 1.2 0 2 .4 2.5.6l.5-1.9c-.6-.3-1.3-.5-2.5-.6v-1.5h-1.7v1.6c-1.8.4-2.9 1.5-2.9 3 0 1.7 1.2 2.5 3.1 3.1 1.3.4 1.8.8 1.8 1.5s-.7 1.1-1.6 1.1c-1.1 0-2.1-.4-2.8-.8l-.5 2c.7.4 1.8.7 2.9.7v1.6h1.7v-1.7c2-.3 3-1.6 3-3.2 0-1.3-.9-2.3-2.9-3z"/></symbol><symbol id="icon-logo" viewBox="7.3 335.5 597.5 114.5"><g xmlns="http://www.w3.org/2000/svg" fill="#F1F0F0"><path d="M51.7 408.2H27.2v37.4H7.3V341h44c21.9 0 34.5 13.3 34.5 33.8 0 19.5-13.4 33.4-34.1 33.4m-24.5-48.6V390h24c9.2 0 14.7-4.7 14.7-15.2 0-10.6-5.6-15.2-14.7-15.2h-24zM163.1 421c-4.5 15.9-18.2 26.6-37.6 26.6-22 0-39.8-18.1-39.8-40.6s17.8-40.8 39.8-40.8c18.7 0 34.4 11.8 38.1 32.5l-54.8 23c3.9 5.4 9.8 8.3 16.6 8.3 6.5 0 13.1-2.8 16.4-8.9l21.3-.1m-22.3-30.5c-3.6-4.4-9.1-7-15.4-7-11.5 0-20.7 9.1-21.1 22.3l36.5-15.3zM248.7 421c-4.5 15.9-18.2 26.6-37.5 26.6-22 0-39.8-18.1-39.8-40.6s17.7-40.8 39.8-40.8c18.7 0 34.4 11.8 38.1 32.5l-54.9 23c3.9 5.4 9.8 8.3 16.6 8.3 6.5 0 13.2-2.8 16.5-8.9l21.2-.1m-22.3-30.5c-3.6-4.4-9.1-7-15.4-7-11.4 0-20.6 9.1-21.1 22.3l36.5-15.3zM300.6 385.8c-8-.9-14.6 0-19.2 4.8-4.2 4.3-5 10.7-5 16.9v38.1h-19.9V368h19v7.7c6.3-7.8 15.7-10.7 25-9.2v19.3"/><path d="M358 445.6h-51V341h48.2c21 0 31.5 10.8 31.5 28.4 0 8.8-3.7 15.8-10.3 20.4 8.9 4.7 14.4 13.2 14.4 25 0 18.8-12.6 30.8-32.8 30.8m-31.1-86.5v23.1h28.3c6.8 0 12.2-4.7 12.2-11.6 0-7-4.7-11.5-12.2-11.5h-28.3zm27.9 41.4H327v26.9h28.3c7.7 0 15.2-2.9 15.2-13.2 0-8.8-5.6-13.7-15.7-13.7zM441.9 385.8c-8-.9-14.6 0-19.2 4.8-4.2 4.3-5 10.7-5 16.9v38.1h-19.9V368h19v7.7c6.3-7.8 15.7-10.7 25-9.2l.1 19.3"/><path d="M469.8 359.6h-19.9V341h19.9v18.6zm0 86h-19.9V368h19.9v77.6zM554.5 421c-4.6 15.9-18.2 26.6-37.5 26.6-22.1 0-39.8-18.1-39.8-40.6s17.7-40.8 39.8-40.8c18.6 0 34.3 11.8 38.1 32.5l-55 23c4 5.4 9.9 8.3 16.6 8.3 6.5 0 13.2-2.8 16.5-8.9l21.3-.1m-22.3-30.5c-3.5-4.4-9.1-7-15.4-7-11.3 0-20.6 9.1-21.1 22.3l36.5-15.3zM604.1 368.3V386h-14v59.6h-19.9V386h-9.4v-17.7h9.4c.2-20.2 12.5-35.1 34.6-32.5v18.7c-9.4-.8-14.7 3.1-14.7 13.8h14"/></g></symbol><symbol id="icon-piggy-bank" viewBox="0 0 95.209 100"><title>Pig by Jezmael</title><path d="M42.63 27.23c-1.437 0-2.577 1.173-2.577 2.61s1.14 2.612 2.578 2.612c1.44 0 2.61-1.173 2.61-2.61s-1.172-2.612-2.61-2.612zM53.206 27.23c-1.438 0-2.578 1.173-2.578 2.61s1.14 2.612 2.578 2.612 2.61-1.173 2.61-2.61-1.173-2.612-2.61-2.612zM48.017 36.847c-10.276 0-18.605 7.594-18.605 16.92s8.33 16.92 18.605 16.92 18.67-7.594 18.67-16.92-8.393-16.92-18.67-16.92zm0 30.8c-8.478 0-15.3-6.187-15.3-13.88s6.822-13.913 15.3-13.913c8.477 0 15.334 6.22 15.334 13.913s-6.856 13.88-15.333 13.88zM41.507 49.01c-1.035 0-1.884.814-1.884 1.85v4.13c0 1.036.85 1.885 1.884 1.885 1.036 0 1.884-.85 1.884-1.884v-4.13c0-1.036-.847-1.85-1.883-1.85zM54.197 49.01c-1.036 0-1.884.814-1.884 1.85v4.13c0 1.036.848 1.885 1.884 1.885 1.035 0 1.884-.85 1.884-1.884v-4.13c0-1.036-.848-1.85-1.883-1.85zM91.078 29.478c2.46-2.603 4.13-5.968 4.13-9.683 0-4.05-1.508-7.437-4.03-9.716C88.654 7.8 85.2 6.64 81.395 6.64c-2.643 0-5.56.207-8.295.86C65.864 2.776 57.25 0 48.018 0c-9.335 0-18.032 2.81-25.314 7.634-2.9-.77-6.056-.99-8.89-.99-3.805 0-7.26 1.157-9.78 3.436C1.508 12.358 0 15.747 0 19.795c0 4.008 1.97 7.603 4.76 10.278-2.027 5.29-3.14 11.038-3.14 17.052 0 12.354 4.687 23.615 12.36 32.022-.456 1.34-1.064 3.11-1.852 5.52-.5 1.528-.983 3.05-1.355 4.263-.187.605-.344 1.124-.463 1.553-.12.43-.217.668-.264 1.09-.076.684-.155 1.63.264 2.678.386.964 1.34 1.833 2.578 2.314l-.033.032c.044.025.277.104.33.133 1.554.846 6.907 3.27 14.872 3.27 2.706 0 5.59-.56 7.897-1.29 1.154-.364 2.163-.773 2.975-1.222.405-.224.756-.455 1.09-.76.333-.305.738-.703.826-1.487.05-.44.07-.987.065-1.553 2.315.36 4.693.562 7.106.562 2.448 0 4.857-.224 7.204-.596-.006.583.017 1.13.066 1.586.087.784.493 1.183.826 1.487s.685.536 1.09.76c.813.448 1.82.857 2.975 1.223 2.31.73 5.192 1.29 7.898 1.29 7.966 0 13.317-2.425 14.87-3.272.054-.03.288-.107.332-.133l-.033-.033c1.237-.48 2.192-1.35 2.577-2.312.42-1.05.342-1.994.266-2.677-.047-.424-.145-.66-.265-1.09-.118-.433-.274-.978-.46-1.587-.375-1.218-.855-2.73-1.356-4.264-.793-2.432-1.4-4.225-1.85-5.55 7.642-8.4 12.325-19.64 12.325-31.958 0-6.238-1.225-12.194-3.402-17.646zM81.394 9.815c3.164 0 5.818.94 7.667 2.61 1.85 1.67 2.976 4.08 2.976 7.37 0 2.27-1.027 4.378-2.48 6.246-2.283-4.613-5.307-8.798-8.89-12.392 2.73-.016 5.196 1.454 7.437 4.362-.23-4.543-4.237-5.873-9.42-6.246-.623-.558-1.262-1.095-1.915-1.62 1.55-.196 3.12-.33 4.626-.33zm-78.22 9.98c0-3.292 1.124-5.7 2.973-7.37s4.503-2.61 7.667-2.61c1.742 0 3.576.137 5.354.395-.582.47-1.128.957-1.685 1.454-5.91.22-10.72 1.36-10.972 6.345 2.592-3.364 5.514-4.793 8.758-4.23-.514.52-1.028 1.038-1.52 1.585-.02.024-.046.043-.066.066-.053.058-.113.11-.165.166-2.968 3.243-5.475 6.92-7.436 10.938-1.66-1.99-2.907-4.26-2.907-6.74zm34.5 74.72c-.087.062-.14.11-.298.198-.526.29-1.37.64-2.38.958-2.02.64-4.688 1.158-6.94 1.158-7.52 0-13.07-2.696-13.614-3.008-.104-.057-.216-.1-.33-.133-.725-.226-.77-.375-.86-.594-.087-.22-.09-.672-.032-1.19-.016.146.026-.18.133-.562.105-.38.28-.897.462-1.486.362-1.18.826-2.678 1.322-4.196.566-1.734.93-2.828 1.322-4 5.858 5.523 13.12 9.53 21.182 11.402.012.56.044 1.173.032 1.455zm44.646-4.693c.182.592.356 1.104.463 1.486.105.384.147.74.132.596.058.518.055.97-.033 1.19-.088.218-.135.367-.86.593-.113.032-.225.076-.33.133-.544.312-6.095 3.008-13.614 3.008-2.25 0-4.92-.52-6.94-1.157-1.01-.318-1.853-.666-2.38-.957-.157-.088-.21-.137-.297-.198-.01-.288.02-.915.034-1.487 8.055-1.89 15.33-5.902 21.184-11.434.394 1.176.75 2.276 1.32 4.03.497 1.526.96 3.013 1.322 4.198zm-34.303.198c-23.346 0-42.2-19.19-42.2-42.895S24.67 4.263 48.016 4.263s42.267 19.16 42.267 42.862S71.364 90.02 48.017 90.02z"/></symbol><symbol id="icon-trophy" viewBox="30.2 30.9 43.5 53.7"><path d="M66 52.5c4.3 0 7.7-3.5 7.7-7.8 0-3.8-2.7-6.9-6.2-7.6V31h-31v6.1c-3.6.7-6.2 3.9-6.2 7.6 0 4.3 3.4 7.7 7.7 7.8 1.4 3.8 4.1 7.6 9.3 9l-4.4 12.3-6.7 4.4v6.4h31.5v-6.3l-6.6-4.6-4.4-12.3c5.2-1.4 7.9-5.1 9.3-8.9zm1.5-12.9c2.2.7 3.8 2.7 3.8 5.1 0 2.6-1.9 4.8-4.5 5.2.6-2.6.7-5 .7-6.5v-3.8zm-34.8 5.1c0-2.4 1.6-4.4 3.8-5.1v3.7c0 1.6.1 4 .7 6.5-2.6-.3-4.5-2.5-4.5-5.1zm25.3 29H45.9l4.2-11.8c.6.1 1.2.1 1.9.1s1.3 0 1.9-.1L58 73.7zm-6-14.2c-4.3 0-9.2-1.5-11.6-7.4-.3-.7-.5-1.5-.7-2.4-.4-1.8-.7-3.9-.7-6.4v-9.9h26v9.9c0 2.5-.2 4.6-.7 6.4 0 .1-.1.2-.1.3-.1.4-.2.9-.4 1.3-.1.2-.1.3-.2.5-2.2 6.2-7.2 7.7-11.6 7.7zM54.4 42.6l-2.1-4.1-2 4.1-4.5.6 3.3 3.2-.8 4.5 4-2.1 4.1 2.1-.8-4.5 3.3-3.2z"/></symbol></svg>
