<?xml version="1.0" encoding="utf-8"?>
<!-- Generator: Adobe Illustrator 18.0.0, SVG Export Plug-In . SVG Version: 6.00 Build 0)  -->
<!DOCTYPE svg PUBLIC "-//W3C//DTD SVG 1.1//EN" "http://www.w3.org/Graphics/SVG/1.1/DTD/svg11.dtd">
<svg version="1.1" id="Layer_1" xmlns="http://www.w3.org/2000/svg" xmlns:xlink="http://www.w3.org/1999/xlink" x="0px" y="0px"
	 viewBox="2.3 12.9 95 76.1" enable-background="new 2.3 12.9 95 76.1" xml:space="preserve">
<circle fill="none" cx="49.8" cy="73.5" r="1.8"/>
<path d="M94.4,12.9H50.6h-1.5H5.2c-1.6,0-2.9,1.2-2.9,2.8v54.1v0.2v5v0.3c0,1.6,1.3,2.9,2.9,2.9h35.1c0,0.9-0.3,4.8-2.2,6.6
	c-1.4,1.5-3.5,2.9-2.7,3.6c0.2,0.4,1.1,0.7,3.1,0.7c4.5,0,9.4,0,11.2,0c0.5,0,0.7,0,0.7,0c1.8,0,6.7,0,11.2,0c2.3,0,3.1-0.4,3.2-1
	h-0.1v-0.2h-0.1c-0.1-0.8-1.7-1.9-2.8-3.1c-1.8-1.9-2.1-5.7-2.2-6.6h34.7c1.6,0,2.8-1.3,2.8-2.9v-0.3v-5v-0.2V15.6
	C97.3,14.1,96,12.9,94.4,12.9z M49.8,75.4c-1,0-1.8-0.8-1.8-1.8s0.8-1.8,1.8-1.8s1.8,0.8,1.8,1.8S50.8,75.4,49.8,75.4z M93.3,65.7
	h-87v-49h87V65.7L93.3,65.7L93.3,65.7z"/>
<rect x="49.8" y="22.5" width="19.6" height="2.4"/>
<rect x="49.8" y="26.8" width="39.2" height="2.4"/>
<rect x="49.8" y="31.2" width="39.2" height="2.4"/>
<rect x="49.8" y="35.6" width="39.2" height="2.4"/>
<rect x="49.8" y="40" width="39.2" height="2.4"/>
<rect x="49.8" y="44.4" width="19.6" height="2.4"/>
<rect x="49.8" y="48.8" width="39.2" height="2.4"/>
<rect x="49.8" y="53.2" width="39.2" height="2.4"/>
<rect x="49.8" y="57.6" width="39.2" height="2.4"/>
<path d="M10.7,34.9h2.4c0.3,0,0.5-0.2,0.5-0.5v-4.7c0-0.3-0.2-0.5-0.5-0.5h-2.4c-0.3,0-0.5,0.2-0.5,0.5v4.7
	C10.2,34.7,10.4,34.9,10.7,34.9z"/>
<path d="M16.5,34.9h2.4c0.3,0,0.5-0.2,0.5-0.5v-7.5c0-0.3-0.2-0.5-0.5-0.5h-2.4c-0.3,0-0.5,0.2-0.5,0.5v7.5
	C16,34.7,16.2,34.9,16.5,34.9z"/>
<path d="M24.7,23.5h-2.4c-0.3,0-0.5,0.2-0.5,0.5v10.4c0,0.3,0.2,0.5,0.5,0.5h2.4c0.3,0,0.5-0.2,0.5-0.5V24.1
	C25.2,23.8,25,23.5,24.7,23.5z"/>
<path d="M17.4,43.9L17.4,43.9L17.4,43.9z"/>
<path d="M16.9,51.1l-0.4-0.2h0.7v-6.7C16,44.1,15,44.4,14,45c-1.6,0.9-2.8,2.4-3.2,4.2c-0.5,1.7-0.3,3.5,0.6,5.1L16.9,51.1z"/>
<path d="M20.1,52.9l-2.7-1.6l-5.9,3.4c0.6,1,1.4,1.7,2.4,2.3c1.1,0.6,2.3,0.9,3.5,0.9c2.4,0,4.6-1.2,5.9-3.3L20.1,52.9z"/>
<path d="M17.7,50.9l5.9,3.4c0.6-1,0.8-2.1,0.8-3.3c0-3.7-3-6.8-6.7-6.9C17.7,44.1,17.7,50.9,17.7,50.9z"/>
<polygon points="17.4,43.9 17.4,43.9 17.4,43.9 "/>
<polygon points="17.4,51.1 17.4,43.9 17.4,43.9 17.4,43.9 17.4,51.1 "/>
<path d="M46.2,25.7c-0.5,0-0.8,0.4-0.8,0.8c0,0.1,0,0.2,0.1,0.3l-4.1,3c-0.1-0.1-0.3-0.2-0.5-0.2c-0.2,0-0.4,0.1-0.6,0.2l-3.8-2.4
	c0-0.1,0-0.2,0-0.3c0-0.5-0.4-0.8-0.8-0.8c-0.5,0-0.8,0.4-0.8,0.8c0,0.2,0,0.3,0.1,0.4l-3.5,3.5c-0.1-0.1-0.3-0.1-0.4-0.1
	c-0.5,0-0.8,0.4-0.8,0.8c0,0.5,0.4,0.8,0.8,0.8c0.5,0,0.8-0.4,0.8-0.8c0-0.2,0-0.3-0.1-0.4l3.5-3.5c0.1,0.1,0.3,0.1,0.4,0.1
	c0.2,0,0.4-0.1,0.6-0.2l3.8,2.3c0,0.1,0,0.2,0,0.3c0,0.5,0.4,0.8,0.8,0.8c0.5,0,0.8-0.4,0.8-0.8c0-0.1,0-0.2-0.1-0.3l4.1-3
	c0.1,0.1,0.3,0.2,0.5,0.2c0.5,0,0.8-0.4,0.8-0.8C47.1,26.1,46.7,25.7,46.2,25.7z"/>
<path d="M39.6,50c-1.5-0.5-2.1-0.9-2.1-1.5c0-0.5,0.4-1,1.5-1c1.2,0,2,0.4,2.5,0.6l0.5-1.9c-0.6-0.3-1.3-0.5-2.5-0.6v-1.5h-1.7v1.6
	c-1.8,0.4-2.9,1.5-2.9,3c0,1.7,1.2,2.5,3.1,3.1c1.3,0.4,1.8,0.8,1.8,1.5c0,0.7-0.7,1.1-1.6,1.1c-1.1,0-2.1-0.4-2.8-0.8l-0.5,2
	c0.7,0.4,1.8,0.7,2.9,0.7v1.6h1.7v-1.7c2-0.3,3-1.6,3-3.2C42.5,51.7,41.6,50.7,39.6,50z"/>
</svg>
