<?xml version="1.0" encoding="utf-8"?>
<!-- Generator: Adobe Illustrator 18.0.0, SVG Export Plug-In . SVG Version: 6.00 Build 0)  -->
<!DOCTYPE svg PUBLIC "-//W3C//DTD SVG 1.1//EN" "http://www.w3.org/Graphics/SVG/1.1/DTD/svg11.dtd">
<svg version="1.1" id="Layer_1" xmlns="http://www.w3.org/2000/svg" xmlns:xlink="http://www.w3.org/1999/xlink" x="0px" y="0px"
	 viewBox="7.3 335.5 597.5 112.1" enable-background="new 7.3 335.5 597.5 112.1" xml:space="preserve">
<g>
	<path fill="#F1F0F0" d="M51.7,408.2H27.2v37.4H7.3V341h44c21.9,0,34.5,13.3,34.5,33.8C85.8,394.3,72.4,408.2,51.7,408.2
		 M27.2,359.6V390h24c9.2,0,14.7-4.7,14.7-15.2c0-10.6-5.6-15.2-14.7-15.2C51.2,359.6,27.2,359.6,27.2,359.6z"/>
	<path fill="#F1F0F0" d="M163.1,421c-4.5,15.9-18.2,26.6-37.6,26.6c-22,0-39.8-18.1-39.8-40.6c0-22.5,17.8-40.8,39.8-40.8
		c18.7,0,34.4,11.8,38.1,32.5l-54.8,23c3.9,5.4,9.8,8.3,16.6,8.3c6.5,0,13.1-2.8,16.4-8.9L163.1,421 M140.8,390.5
		c-3.6-4.4-9.1-7-15.4-7c-11.5,0-20.7,9.1-21.1,22.3L140.8,390.5z"/>
	<path fill="#F1F0F0" d="M248.7,421c-4.5,15.9-18.2,26.6-37.5,26.6c-22,0-39.8-18.1-39.8-40.6c0-22.5,17.7-40.8,39.8-40.8
		c18.7,0,34.4,11.8,38.1,32.5l-54.9,23c3.9,5.4,9.8,8.3,16.6,8.3c6.5,0,13.2-2.8,16.5-8.9L248.7,421 M226.4,390.5
		c-3.6-4.4-9.1-7-15.4-7c-11.4,0-20.6,9.1-21.1,22.3L226.4,390.5z"/>
	<path fill="#F1F0F0" d="M300.6,385.8c-8-0.9-14.6,0-19.2,4.8c-4.2,4.3-5,10.7-5,16.9v38.1h-19.9V368h19v7.7
		c6.3-7.8,15.7-10.7,25-9.2V385.8"/>
	<path fill="#F1F0F0" d="M358,445.6h-51V341h48.2c21,0,31.5,10.8,31.5,28.4c0,8.8-3.7,15.8-10.3,20.4c8.9,4.7,14.4,13.2,14.4,25
		C390.8,433.6,378.2,445.6,358,445.6 M326.9,359.1v23.1h28.3c6.8,0,12.2-4.7,12.2-11.6c0-7-4.7-11.5-12.2-11.5L326.9,359.1
		L326.9,359.1z M354.8,400.5h-27.8v26.9h28.3c7.7,0,15.2-2.9,15.2-13.2C370.5,405.4,364.9,400.5,354.8,400.5z"/>
	<path fill="#F1F0F0" d="M441.9,385.8c-8-0.9-14.6,0-19.2,4.8c-4.2,4.3-5,10.7-5,16.9v38.1h-19.9V368h19v7.7
		c6.3-7.8,15.7-10.7,25-9.2L441.9,385.8"/>
	<path fill="#F1F0F0" d="M469.8,359.6h-19.9V341h19.9V359.6z M469.8,445.6h-19.9V368h19.9V445.6z"/>
	<path fill="#F1F0F0" d="M554.5,421c-4.6,15.9-18.2,26.6-37.5,26.6c-22.1,0-39.8-18.1-39.8-40.6c0-22.5,17.7-40.8,39.8-40.8
		c18.6,0,34.3,11.8,38.1,32.5l-55,23c4,5.4,9.9,8.3,16.6,8.3c6.5,0,13.2-2.8,16.5-8.9L554.5,421 M532.2,390.5c-3.5-4.4-9.1-7-15.4-7
		c-11.3,0-20.6,9.1-21.1,22.3L532.2,390.5z"/>
	<path fill="#F1F0F0" d="M604.1,368.3V386h-14v59.6h-19.9V386h-9.4v-17.7h9.4c0.2-20.2,12.5-35.1,34.6-32.5v18.7
		c-9.4-0.8-14.7,3.1-14.7,13.8L604.1,368.3"/>
</g>
</svg>
