<?xml version="1.0" encoding="utf-8"?>
<!-- Generator: Adobe Illustrator 15.1.0, SVG Export Plug-In . SVG Version: 6.00 Build 0)  -->
<!DOCTYPE svg PUBLIC "-//W3C//DTD SVG 1.1//EN" "http://www.w3.org/Graphics/SVG/1.1/DTD/svg11.dtd">
<svg version="1.1"
	 id="svg3434" xmlns:sodipodi="http://sodipodi.sourceforge.net/DTD/sodipodi-0.dtd" xmlns:svg="http://www.w3.org/2000/svg" xmlns:dc="http://purl.org/dc/elements/1.1/" xmlns:rdf="http://www.w3.org/1999/02/22-rdf-syntax-ns#" inkscape:version="0.48.2 r9819" xmlns:cc="http://creativecommons.org/ns#" sodipodi:docname="Novo documento 2" xmlns:inkscape="http://www.inkscape.org/namespaces/inkscape"
	 xmlns="http://www.w3.org/2000/svg" xmlns:xlink="http://www.w3.org/1999/xlink" x="0px" y="0px" width="95.209px" height="100px"
	 viewBox="0 0 95.209 100" enable-background="new 0 0 95.209 100" xml:space="preserve">
<title  id="title4217">Pig by Jezmael</title>
<sodipodi:namedview  inkscape:window-y="-8" inkscape:cy="10.665172" bordercolor="#666666" borderopacity="1.0" inkscape:cx="-1.9826246" fit-margin-bottom="0" inkscape:window-maximized="1" inkscape:current-layer="layer1" pagecolor="#ffffff" fit-margin-right="0" inkscape:window-width="1280" inkscape:zoom="1.4" inkscape:pageshadow="2" inkscape:pageopacity="0.0" id="base" fit-margin-left="0" inkscape:window-height="738" inkscape:window-x="-8" fit-margin-top="0" showgrid="false" inkscape:document-units="px">
	</sodipodi:namedview>
<path d="M42.631,27.23c-1.438,0-2.578,1.173-2.578,2.611s1.14,2.611,2.578,2.611c1.438,0,2.61-1.173,2.61-2.611
	S44.068,27.23,42.631,27.23z"/>
<path d="M53.206,27.23c-1.438,0-2.578,1.173-2.578,2.611s1.14,2.611,2.578,2.611c1.438,0,2.61-1.173,2.61-2.611
	S54.643,27.23,53.206,27.23z"/>
<path d="M48.017,36.847c-10.276,0-18.605,7.594-18.605,16.92c0,9.326,8.329,16.92,18.605,16.92s18.671-7.594,18.671-16.92
	C66.688,44.441,58.294,36.847,48.017,36.847z M48.017,67.646c-8.478,0-15.301-6.186-15.301-13.879s6.823-13.913,15.301-13.913
	c8.477,0,15.334,6.22,15.334,13.913S56.494,67.646,48.017,67.646z"/>
<path d="M41.507,49.009c-1.035,0-1.884,0.815-1.884,1.851v4.131c0,1.035,0.849,1.884,1.884,1.884c1.036,0,1.884-0.849,1.884-1.884
	v-4.131C43.39,49.824,42.543,49.009,41.507,49.009z"/>
<path d="M54.197,49.009c-1.036,0-1.884,0.815-1.884,1.851v4.131c0,1.035,0.848,1.884,1.884,1.884c1.035,0,1.884-0.849,1.884-1.884
	v-4.131C56.081,49.824,55.232,49.009,54.197,49.009z"/>
<path d="M91.078,29.478c2.461-2.603,4.131-5.968,4.131-9.683c0-4.049-1.509-7.437-4.032-9.716c-2.522-2.278-5.977-3.437-9.781-3.437
	c-2.643,0-5.56,0.207-8.295,0.859C65.863,2.777,57.248,0,48.017,0c-9.335,0-18.032,2.811-25.314,7.634
	c-2.901-0.771-6.056-0.991-8.89-0.991c-3.805,0-7.259,1.158-9.781,3.437C1.509,12.358,0,15.747,0,19.795
	c0,4.008,1.97,7.603,4.759,10.278c-2.026,5.291-3.14,11.038-3.14,17.052c0,12.354,4.688,23.615,12.36,32.022
	c-0.455,1.339-1.063,3.11-1.851,5.519c-0.5,1.529-0.983,3.052-1.355,4.264c-0.187,0.605-0.344,1.124-0.463,1.553
	c-0.119,0.43-0.217,0.668-0.264,1.091c-0.076,0.683-0.155,1.628,0.264,2.677c0.386,0.963,1.34,1.832,2.578,2.313l-0.033,0.032
	c0.044,0.025,0.277,0.104,0.331,0.133C14.739,97.576,20.092,100,28.057,100c2.706,0,5.589-0.559,7.897-1.289
	c1.154-0.365,2.163-0.774,2.975-1.223c0.406-0.224,0.757-0.455,1.091-0.76c0.333-0.305,0.738-0.703,0.826-1.487
	c0.049-0.442,0.07-0.988,0.065-1.554c2.314,0.361,4.692,0.562,7.105,0.562c2.448,0,4.857-0.223,7.204-0.595
	c-0.006,0.583,0.017,1.131,0.066,1.586c0.087,0.784,0.493,1.183,0.826,1.487s0.685,0.536,1.091,0.76
	c0.812,0.448,1.819,0.857,2.974,1.223c2.309,0.73,5.192,1.289,7.898,1.289c7.966,0,13.317-2.424,14.871-3.271
	c0.053-0.029,0.287-0.107,0.331-0.133l-0.033-0.033c1.237-0.48,2.192-1.35,2.577-2.312c0.42-1.049,0.341-1.994,0.265-2.677
	c-0.047-0.424-0.145-0.659-0.265-1.091c-0.119-0.432-0.275-0.977-0.462-1.586c-0.374-1.218-0.854-2.729-1.355-4.264
	c-0.793-2.432-1.399-4.225-1.851-5.551c7.643-8.4,12.326-19.639,12.326-31.957C94.481,40.886,93.255,34.93,91.078,29.478z
	 M81.394,9.815c3.164,0,5.818,0.941,7.667,2.611c1.849,1.669,2.975,4.078,2.975,7.369c0,2.271-1.027,4.378-2.479,6.246
	c-2.284-4.614-5.308-8.799-8.89-12.393c2.728-0.016,5.195,1.454,7.436,4.362c-0.229-4.543-4.237-5.873-9.419-6.246
	c-0.624-0.558-1.263-1.095-1.916-1.619C78.317,9.948,79.887,9.815,81.394,9.815z M3.173,19.795c0-3.292,1.125-5.7,2.974-7.37
	s4.503-2.611,7.667-2.611c1.742,0,3.576,0.138,5.354,0.396c-0.582,0.47-1.128,0.957-1.685,1.454
	c-5.911,0.219-10.721,1.36-10.972,6.345c2.591-3.363,5.513-4.792,8.757-4.23c-0.514,0.522-1.028,1.039-1.52,1.586
	c-0.021,0.024-0.046,0.043-0.066,0.066c-0.053,0.057-0.113,0.108-0.165,0.165c-2.968,3.243-5.475,6.92-7.436,10.938
	C4.419,24.544,3.173,22.275,3.173,19.795z M37.674,94.515c-0.087,0.062-0.14,0.11-0.298,0.198c-0.526,0.291-1.369,0.639-2.379,0.958
	c-2.021,0.639-4.689,1.157-6.94,1.157c-7.52,0-13.07-2.696-13.615-3.008c-0.104-0.057-0.216-0.101-0.33-0.133
	c-0.725-0.226-0.771-0.375-0.859-0.594c-0.088-0.22-0.091-0.672-0.033-1.19c-0.016,0.146,0.026-0.181,0.133-0.562
	c0.105-0.381,0.281-0.898,0.462-1.487c0.362-1.179,0.826-2.678,1.322-4.196c0.566-1.734,0.93-2.828,1.322-3.999
	c5.859,5.522,13.122,9.529,21.183,11.401C37.654,93.619,37.686,94.233,37.674,94.515z M82.32,89.822
	c0.182,0.592,0.356,1.104,0.463,1.486c0.105,0.384,0.147,0.739,0.132,0.596c0.058,0.518,0.055,0.97-0.033,1.189
	c-0.088,0.219-0.135,0.368-0.859,0.594c-0.114,0.032-0.226,0.076-0.33,0.133c-0.545,0.312-6.096,3.008-13.615,3.008
	c-2.251,0-4.92-0.519-6.94-1.157c-1.01-0.319-1.853-0.667-2.379-0.958c-0.158-0.088-0.211-0.137-0.298-0.198
	c-0.012-0.288,0.019-0.915,0.033-1.487c8.055-1.889,15.331-5.902,21.184-11.434v-0.001c0.394,1.177,0.75,2.277,1.321,4.032
	C81.495,87.15,81.957,88.637,82.32,89.822z M48.017,90.02c-23.346,0-42.201-19.191-42.201-42.895S24.672,4.263,48.017,4.263
	s42.267,19.159,42.267,42.862S71.363,90.02,48.017,90.02z"/>
</svg>
